<svg xmlns="http://www.w3.org/2000/svg" width="790.0" height="262.3" viewBox="0 0 8778 2915">
  <defs><linearGradient id="sw" gradientUnits="userSpaceOnUse" x1="0" y1="0" x2="0" y2="1120"><stop offset="0" stop-color="#3fb8a0"/><stop offset="0.55" stop-color="#3fb8a0"/><stop offset="1" stop-color="#ff8c69"/></linearGradient></defs>
  <rect width="8778" height="2915" rx="534.8" fill="#16171a"/>
  <g transform="translate(18 1986) scale(1 -1)">
    <path d="M302 1120H469L487 901Q534 1020 628.5 1083.5Q723 1147 855 1147Q993 1147 1095 1077V889Q987 977 839 977Q669 977 578.0 868.5Q487 760 487 557V0H302Z" fill="#ececea" transform="translate(0 0)"/>
    <path d="M678 -29Q419 -29 271.5 126.5Q124 282 124 551Q124 718 182.5 853.0Q241 988 356.5 1067.5Q472 1147 642 1147Q866 1147 989.5 1003.5Q1113 860 1113 606V516H316V510Q316 335 408.0 231.0Q500 127 680 127Q784 127 881.5 160.0Q979 193 1070 240V57Q975 18 877.5 -5.5Q780 -29 678 -29ZM929 660Q929 753 901.0 828.0Q873 903 811.5 947.0Q750 991 649 991Q547 991 478.5 946.5Q410 902 371.5 827.0Q333 752 323 660Z" fill="#ececea" transform="translate(1233 0)"/>
    <path d="M807 -4Q601 -4 515.5 79.5Q430 163 430 365V977H131V1120H430V1413L614 1493V1120H1032V977H614V365Q614 242 661.0 192.5Q708 143 825 143H1032V-4Z" fill="#ececea" transform="translate(2466 0)"/>
    <path d="M589 -29Q429 -29 213 41V231Q423 125 587 125Q704 125 774.0 174.0Q844 223 844 305Q844 376 785.5 419.5Q727 463 599 490L522 506Q364 538 290.5 611.5Q217 685 217 812Q217 973 327.0 1060.0Q437 1147 640 1147Q812 1147 973 1081V901Q816 993 645 993Q403 993 403 828Q403 774 424.0 742.5Q445 711 504.0 689.5Q563 668 678 645L752 631Q1030 576 1030 328Q1030 162 912.0 66.5Q794 -29 589 -29Z" fill="url(#sw)" transform="translate(3699 0)"/>
    <path d="M678 -29Q419 -29 271.5 126.5Q124 282 124 551Q124 718 182.5 853.0Q241 988 356.5 1067.5Q472 1147 642 1147Q866 1147 989.5 1003.5Q1113 860 1113 606V516H316V510Q316 335 408.0 231.0Q500 127 680 127Q784 127 881.5 160.0Q979 193 1070 240V57Q975 18 877.5 -5.5Q780 -29 678 -29ZM929 660Q929 753 901.0 828.0Q873 903 811.5 947.0Q750 991 649 991Q547 991 478.5 946.5Q410 902 371.5 827.0Q333 752 323 660Z" fill="url(#sw)" transform="translate(4932 0)"/>
    <path d="M195 1120H361L379 952Q480 1147 708 1147Q1051 1147 1051 694V0H866V694Q866 845 813.5 916.0Q761 987 651 987Q520 987 449.5 894.5Q379 802 379 633V0H195Z" fill="url(#sw)" transform="translate(6165 0)"/>
    <path d="M554 -29Q432 -29 349.0 23.0Q266 75 216.5 162.0Q167 249 145.0 354.5Q123 460 123 567Q123 835 240.5 991.0Q358 1147 558 1147Q656 1147 734.0 1105.5Q812 1064 858 977V1556H1042V0H876L858 141Q759 -29 554 -29ZM587 127Q674 127 727.5 168.0Q781 209 809.5 274.5Q838 340 848.0 415.5Q858 491 858 560Q858 628 848.0 703.0Q838 778 809.5 843.5Q781 909 727.5 950.0Q674 991 587 991Q499 991 445.5 950.0Q392 909 364.5 843.5Q337 778 327.0 703.0Q317 628 317 560Q317 492 327.0 416.5Q337 341 364.5 275.5Q392 210 445.5 168.5Q499 127 587 127Z" fill="url(#sw)" transform="translate(7398 0)"/>
  </g>
  <path d="M276.9 2688.1 A52.0 52.0 0 0 1 283.1 2791.9 L428.3 2782.7 L573.5 2773.6 L718.7 2764.7 L864.0 2755.9 L1009.2 2747.4 L1154.4 2738.9 L1299.6 2730.7 L1444.9 2722.6 L1590.1 2714.6 L1735.3 2706.9 L1880.6 2699.3 L2025.8 2691.8 L2171.1 2684.5 L2316.3 2677.4 L2461.5 2670.4 L2606.8 2663.6 L2752.0 2657.0 L2897.3 2650.5 L3042.5 2644.2 L3187.8 2638.1 L3333.0 2632.1 L3478.3 2626.3 L3623.5 2620.6 L3768.8 2615.1 L3914.1 2609.8 L4059.3 2604.6 L4204.6 2599.6 L4349.9 2594.7 L4495.1 2590.1 L4640.4 2585.5 L4785.7 2581.2 L4930.9 2577.0 L5076.2 2572.9 L5221.5 2569.1 L5366.8 2565.4 L5512.0 2561.8 L5657.3 2558.4 L5802.6 2555.2 L5947.9 2552.1 L6093.2 2549.2 L6238.5 2546.5 L6383.7 2543.9 L6529.0 2541.5 L6674.3 2539.3 L6819.6 2537.2 L6964.9 2535.3 L7110.2 2533.5 L7255.5 2531.9 L7400.8 2530.5 L7546.1 2529.2 L7691.4 2528.1 L7836.7 2527.2 L7982.0 2526.4 L8127.3 2525.8 L8272.7 2525.3 L8418.0 2525.0 L8418.0 2505.0 L8272.7 2503.8 L8127.4 2502.8 L7982.0 2501.9 L7836.7 2501.2 L7691.4 2500.6 L7546.0 2500.2 L7400.7 2500.0 L7255.3 2499.9 L7110.0 2500.0 L6964.7 2500.3 L6819.3 2500.7 L6674.0 2501.3 L6528.6 2502.0 L6383.3 2502.9 L6237.9 2504.0 L6092.5 2505.2 L5947.2 2506.6 L5801.8 2508.2 L5656.5 2509.9 L5511.1 2511.8 L5365.7 2513.9 L5220.4 2516.1 L5075.0 2518.5 L4929.6 2521.0 L4784.3 2523.7 L4638.9 2526.5 L4493.5 2529.6 L4348.1 2532.8 L4202.8 2536.1 L4057.4 2539.6 L3912.0 2543.3 L3766.6 2547.1 L3621.2 2551.1 L3475.9 2555.3 L3330.5 2559.6 L3185.1 2564.1 L3039.7 2568.8 L2894.3 2573.6 L2748.9 2578.6 L2603.5 2583.7 L2458.1 2589.0 L2312.7 2594.5 L2167.3 2600.1 L2021.9 2605.9 L1876.5 2611.9 L1731.1 2618.0 L1585.7 2624.2 L1440.3 2630.7 L1294.9 2637.3 L1149.4 2644.1 L1004.0 2651.0 L858.6 2658.1 L713.2 2665.3 L567.8 2672.8 L422.4 2680.3 L276.9 2688.1 Z" fill="#3fb8a0"/>
  <path d="M8284.6 2446.4 L8418.0 2515.0 L8284.1 2582.6" fill="none" stroke="#3fb8a0" stroke-width="40" stroke-linecap="round" stroke-linejoin="round"/>
</svg>
